<?xml version="1.0" encoding="utf-8"?>
<!-- Generator: Adobe Illustrator 24.3.0, SVG Export Plug-In . SVG Version: 6.00 Build 0)  -->
<svg version="1.1" id="Layer_1" xmlns="http://www.w3.org/2000/svg" xmlns:xlink="http://www.w3.org/1999/xlink" x="0px" y="0px"
	 viewBox="0 0 211 211" style="enable-background:new 0 0 211 211;" xml:space="preserve">
<style type="text/css">
	.st0{fill:#6D6E71;}
	.st1{fill:#F47A55;}
	.st2{fill:#EF4123;}
	.st3{fill:#A19C94;}
</style>
<g>
	<g>
		<path class="st0" d="M78.46,122.886c-1.96-1.92-5.2-4.88-9.52-8.08c-24.48-18.08-41.44-12.04-56.16-26.52
			c-1.36-1.36-14.88-15.04-12.04-31.84c2.48-14.68,16.28-25.48,29.68-27.96c15.6-2.88,28.12,6.48,37.92,13.8
			c10.92,8.12,16.64,17.08,18.4,19.96c4.96,8.16,12.2,20.16,9.32,34.88C93.22,111.646,82.3,120.166,78.46,122.886z"/>
		<path class="st1" d="M134.58,120.806c-2.64,2.8-8.76,9.4-11.8,19.84c-1.92,6.6-1.96,12.36-1.68,16.08
			c-2.92-4.8-6.6-11.8-9.16-20.76c-1.32-4.64-9-32.84,4.84-61.56c11.6-24,39.92-51.84,65.88-45.64
			c11.64,2.76,24.32,12.72,27.32,26.2c2.96,13.36-4.76,25.04-6.16,27.12C187.98,105.246,155.9,98.286,134.58,120.806z"/>
		<path class="st2" d="M182.34,154.966c-1.8-8.96-9.12-15.44-15.92-17.88c-7.76-2.76-12.72,0.56-24.92-3.28
			c-3.04-0.96-5.44-2-7.04-2.76c-9.28,13.96-9.92,30.4-2,40.76c5.36,7.08,13.28,9.4,15.44,10c2.6,0.72,17.8,4.6,27.92-5.76
			C176.3,175.526,184.7,166.646,182.34,154.966z"/>
		<path class="st3" d="M101.38,102.326c-4.16,10-11.56,22.8-25,29.32c-17.96,8.72-32.92-0.48-42.48,9.8
			c-7.44,8.04-8.2,24.24-0.04,33.6c8,9.2,21.28,7.96,23.4,7.72c16.84-1.88,26.72-17.68,32.04-26.2
			C102.42,135.726,102.34,113.686,101.38,102.326z"/>
	</g>
</g>
</svg>
